<svg width="16" height="16" viewBox="0 0 16 16" fill="none" xmlns="http://www.w3.org/2000/svg">
<path d="M5.3335 5.33331C5.3335 4.3905 5.3335 3.9191 5.62639 3.62621C5.91928 3.33331 6.39069 3.33331 7.3335 3.33331H7.43076C8.03217 3.33331 8.33287 3.33331 8.57453 3.48266C8.81618 3.63201 8.95066 3.90097 9.21962 4.43889L9.66683 5.33331H11.3335C12.2763 5.33331 12.7477 5.33331 13.0406 5.62621C13.3335 5.9191 13.3335 6.3905 13.3335 7.33331V7.99998C13.3335 8.94279 13.3335 9.41419 13.0406 9.70709C12.7477 9.99998 12.2763 9.99998 11.3335 9.99998H7.3335C6.39069 9.99998 5.91928 9.99998 5.62639 9.70709C5.3335 9.41419 5.3335 8.94279 5.3335 7.99998V5.33331Z" stroke="#163AC7" stroke-linejoin="round"/>
<path d="M11.3332 9.99998V11.0666C11.3332 11.6267 11.3332 11.9067 11.2242 12.1206C11.1283 12.3088 10.9753 12.4618 10.7872 12.5577C10.5732 12.6666 10.2932 12.6666 9.73317 12.6666H4.2665C3.70645 12.6666 3.42643 12.6666 3.21251 12.5577C3.02435 12.4618 2.87137 12.3088 2.7755 12.1206C2.6665 11.9067 2.6665 11.6267 2.6665 11.0666V6.93331C2.6665 6.37326 2.6665 6.09323 2.7755 5.87932C2.87137 5.69116 3.02435 5.53818 3.21251 5.44231C3.42643 5.33331 3.70645 5.33331 4.2665 5.33331H5.33317" stroke="#163AC7" stroke-linejoin="round"/>
</svg>
